<?xml version="1.0" encoding="UTF-8" standalone="no"?>
<!-- Created with Inkscape (http://www.inkscape.org/) -->

<svg
   xmlns:dc="http://purl.org/dc/elements/1.1/"
   xmlns:cc="http://creativecommons.org/ns#"
   xmlns:rdf="http://www.w3.org/1999/02/22-rdf-syntax-ns#"
   xmlns:svg="http://www.w3.org/2000/svg"
   xmlns="http://www.w3.org/2000/svg"
   xmlns:sodipodi="http://sodipodi.sourceforge.net/DTD/sodipodi-0.dtd"
   xmlns:inkscape="http://www.inkscape.org/namespaces/inkscape"
   id="svg2"
   version="1.1"
   inkscape:version="0.48.4 r9939"
   width="560"
   height="262.5"
   xml:space="preserve"
   sodipodi:docname="img-1.svg"><metadata
     id="metadata8"><rdf:RDF><cc:Work
         rdf:about=""><dc:format>image/svg+xml</dc:format><dc:type
           rdf:resource="http://purl.org/dc/dcmitype/StillImage" /><dc:title /></cc:Work></rdf:RDF></metadata><defs
     id="defs6"><clipPath
       clipPathUnits="userSpaceOnUse"
       id="clipPath22"><path
         d="m 3777.99,536.012 52.8008,0 0,134.402 -52.8008,0 0,-134.402 z"
         id="path24" /></clipPath><clipPath
       clipPathUnits="userSpaceOnUse"
       id="clipPath36"><path
         d="m 3828.39,536.012 63.5977,0 0,134.402 -63.5977,0 0,-134.402 z"
         id="path38" /></clipPath><clipPath
       clipPathUnits="userSpaceOnUse"
       id="clipPath46"><path
         d="m 440.789,267.215 297.602,0 0,134.398 -297.602,0 0,-134.398 z"
         id="path48" /></clipPath><clipPath
       clipPathUnits="userSpaceOnUse"
       id="clipPath60"><path
         d="m 738.391,267.215 25.1992,0 0,134.398 -25.1992,0 0,-134.398 z"
         id="path62" /></clipPath><clipPath
       clipPathUnits="userSpaceOnUse"
       id="clipPath70"><path
         d="m 763.59,267.215 372,0 0,134.398 -372,0 0,-134.398 z"
         id="path72" /></clipPath><clipPath
       clipPathUnits="userSpaceOnUse"
       id="clipPath84"><path
         d="m 1135.59,267.215 63.6016,0 0,134.398 -63.6016,0 0,-134.398 z"
         id="path86" /></clipPath><clipPath
       clipPathUnits="userSpaceOnUse"
       id="clipPath116"><path
         d="m 793.59,1523.61 56.4023,0 0,134.398 -56.4023,0 0,-134.398 z"
         id="path118" /></clipPath><clipPath
       clipPathUnits="userSpaceOnUse"
       id="clipPath130"><path
         d="m 849.992,1523.61 63.5977,0 0,134.398 -63.5977,0 0,-134.398 z"
         id="path132" /></clipPath><clipPath
       clipPathUnits="userSpaceOnUse"
       id="clipPath140"><path
         d="m 1329.99,935.613 56.3984,0 0,134.398 -56.3984,0 0,-134.398 z"
         id="path142" /></clipPath><clipPath
       clipPathUnits="userSpaceOnUse"
       id="clipPath154"><path
         d="m 1386.39,935.613 63.6016,0 0,134.398 -63.6016,0 0,-134.398 z"
         id="path156" /></clipPath><clipPath
       clipPathUnits="userSpaceOnUse"
       id="clipPath164"><path
         d="m 282.391,1520.01 56.3984,0 0,134.402 -56.3984,0 0,-134.402 z"
         id="path166" /></clipPath><clipPath
       clipPathUnits="userSpaceOnUse"
       id="clipPath178"><path
         d="m 338.789,1520.01 63.6016,0 0,134.402 -63.6016,0 0,-134.402 z"
         id="path180" /></clipPath><clipPath
       clipPathUnits="userSpaceOnUse"
       id="clipPath188"><path
         d="m 1361.19,1509.21 56.3984,0 0,134.402 -56.3984,0 0,-134.402 z"
         id="path190" /></clipPath><clipPath
       clipPathUnits="userSpaceOnUse"
       id="clipPath202"><path
         d="m 1417.59,1509.21 63.6016,0 0,134.402 -63.6016,0 0,-134.402 z"
         id="path204" /></clipPath><clipPath
       clipPathUnits="userSpaceOnUse"
       id="clipPath212"><path
         d="m 1385.19,563.613 56.3984,0 0,134.398 -56.3984,0 0,-134.398 z"
         id="path214" /></clipPath><clipPath
       clipPathUnits="userSpaceOnUse"
       id="clipPath226"><path
         d="m 1441.59,563.613 63.6016,0 0,134.398 -63.6016,0 0,-134.398 z"
         id="path228" /></clipPath><clipPath
       clipPathUnits="userSpaceOnUse"
       id="clipPath236"><path
         d="m 254.789,536.012 56.4023,0 0,134.402 -56.4023,0 0,-134.402 z"
         id="path238" /></clipPath><clipPath
       clipPathUnits="userSpaceOnUse"
       id="clipPath250"><path
         d="m 311.191,536.012 63.5977,0 0,134.402 -63.5977,0 0,-134.402 z"
         id="path252" /></clipPath><clipPath
       clipPathUnits="userSpaceOnUse"
       id="clipPath288"><path
         d="m 2437.59,282.813 680.402,0 0,134.402 -680.402,0 0,-134.402 z"
         id="path290" /></clipPath><clipPath
       clipPathUnits="userSpaceOnUse"
       id="clipPath302"><path
         d="m 3117.99,282.813 24,0 0,134.402 -24,0 0,-134.402 z"
         id="path304" /></clipPath><clipPath
       clipPathUnits="userSpaceOnUse"
       id="clipPath312"><path
         d="m 3141.99,282.813 64.7969,0 0,134.402 -64.7969,0 0,-134.402 z"
         id="path314" /></clipPath><clipPath
       clipPathUnits="userSpaceOnUse"
       id="clipPath322"><path
         d="m 2551.59,629.613 56.4023,0 0,134.398 -56.4023,0 0,-134.398 z"
         id="path324" /></clipPath><clipPath
       clipPathUnits="userSpaceOnUse"
       id="clipPath336"><path
         d="m 2607.99,629.613 63.5977,0 0,134.398 -63.5977,0 0,-134.398 z"
         id="path338" /></clipPath><clipPath
       clipPathUnits="userSpaceOnUse"
       id="clipPath346"><path
         d="m 2547.99,1257.21 56.3984,0 0,123.602 -56.3984,0 0,-123.602 z"
         id="path348" /></clipPath><clipPath
       clipPathUnits="userSpaceOnUse"
       id="clipPath360"><path
         d="m 2604.39,1257.21 63.6016,0 0,123.602 -63.6016,0 0,-123.602 z"
         id="path362" /></clipPath><clipPath
       clipPathUnits="userSpaceOnUse"
       id="clipPath370"><path
         d="m 3877.59,791.613 56.3984,0 0,134.398 -56.3984,0 0,-134.398 z"
         id="path372" /></clipPath><clipPath
       clipPathUnits="userSpaceOnUse"
       id="clipPath384"><path
         d="m 3933.99,791.613 63.6016,0 0,134.398 -63.6016,0 0,-134.398 z"
         id="path386" /></clipPath><clipPath
       clipPathUnits="userSpaceOnUse"
       id="clipPath394"><path
         d="m 3541.59,1545.21 56.3984,0 0,134.402 -56.3984,0 0,-134.402 z"
         id="path396" /></clipPath><clipPath
       clipPathUnits="userSpaceOnUse"
       id="clipPath408"><path
         d="m 3597.99,1545.21 63.6016,0 0,134.402 -63.6016,0 0,-134.402 z"
         id="path410" /></clipPath><clipPath
       clipPathUnits="userSpaceOnUse"
       id="clipPath444"><path
         d="m 2912.79,1154.01 57.6016,0 0,134.402 -57.6016,0 0,-134.402 z"
         id="path446" /></clipPath><clipPath
       clipPathUnits="userSpaceOnUse"
       id="clipPath480"><path
         d="m 2504.79,938.012 50.4023,0 0,134.402 -50.4023,0 0,-134.402 z"
         id="path482" /></clipPath><clipPath
       clipPathUnits="userSpaceOnUse"
       id="clipPath516"><path
         d="m 2709.99,1516.41 50.3984,0 0,134.398 -50.3984,0 0,-134.398 z"
         id="path518" /></clipPath><clipPath
       clipPathUnits="userSpaceOnUse"
       id="clipPath536"><path
         d="m 2354.79,1581.21 50.4023,0 0,134.402 -50.4023,0 0,-134.402 z"
         id="path538" /></clipPath><clipPath
       clipPathUnits="userSpaceOnUse"
       id="clipPath550"><path
         d="m 2403.99,1581.21 64.7969,0 0,134.402 -64.7969,0 0,-134.402 z"
         id="path552" /></clipPath><clipPath
       clipPathUnits="userSpaceOnUse"
       id="clipPath570"><path
         d="m 1539.99,321.215 128.398,0 0,189.598 -128.398,0 0,-189.598 z"
         id="path572" /></clipPath><clipPath
       clipPathUnits="userSpaceOnUse"
       id="clipPath584"><path
         d="m 1539.99,158.012 128.398,0 0,189.602 -128.398,0 0,-189.602 z"
         id="path586" /></clipPath><clipPath
       clipPathUnits="userSpaceOnUse"
       id="clipPath598"><path
         d="m 1485.99,351.215 182.398,0 0,159.598 -182.398,0 0,-159.598 z"
         id="path600" /></clipPath><clipPath
       clipPathUnits="userSpaceOnUse"
       id="clipPath612"><path
         d="m 1485.99,332.012 182.398,0 0,178.801 -182.398,0 0,-178.801 z"
         id="path614" /></clipPath><clipPath
       clipPathUnits="userSpaceOnUse"
       id="clipPath626"><path
         d="m 1485.99,286.414 182.398,0 0,187.199 -182.398,0 0,-187.199 z"
         id="path628" /></clipPath><clipPath
       clipPathUnits="userSpaceOnUse"
       id="clipPath640"><path
         d="m 1485.99,278.012 182.398,0 0,187.203 -182.398,0 0,-187.203 z"
         id="path642" /></clipPath><clipPath
       clipPathUnits="userSpaceOnUse"
       id="clipPath660"><path
         d="m 1485.99,224.012 182.398,0 0,187.203 -182.398,0 0,-187.203 z"
         id="path662" /></clipPath><clipPath
       clipPathUnits="userSpaceOnUse"
       id="clipPath674"><path
         d="m 1485.99,164.012 182.398,0 0,187.203 -182.398,0 0,-187.203 z"
         id="path676" /></clipPath><clipPath
       clipPathUnits="userSpaceOnUse"
       id="clipPath688"><path
         d="m 1485.99,123.215 182.398,0 0,182.398 -182.398,0 0,-182.398 z"
         id="path690" /></clipPath><clipPath
       clipPathUnits="userSpaceOnUse"
       id="clipPath702"><path
         d="m 1485.99,123.215 182.398,0 0,162 -182.398,0 0,-162 z"
         id="path704" /></clipPath><clipPath
       clipPathUnits="userSpaceOnUse"
       id="clipPath716"><path
         d="m 1485.99,123.215 182.398,0 0,159.598 -182.398,0 0,-159.598 z"
         id="path718" /></clipPath><clipPath
       clipPathUnits="userSpaceOnUse"
       id="clipPath736"><path
         d="m 1685.19,986.012 73.1992,0 0,148.801 -73.1992,0 0,-148.801 z"
         id="path738" /></clipPath><clipPath
       clipPathUnits="userSpaceOnUse"
       id="clipPath750"><path
         d="m 831.992,1780.41 84,0 0,118.797 -84,0 0,-118.797 z"
         id="path752" /></clipPath></defs><sodipodi:namedview
     pagecolor="#ffffff"
     bordercolor="#666666"
     borderopacity="1"
     objecttolerance="10"
     gridtolerance="10"
     guidetolerance="10"
     inkscape:pageopacity="0"
     inkscape:pageshadow="2"
     inkscape:window-width="1366"
     inkscape:window-height="744"
     id="namedview4"
     showgrid="false"
     inkscape:zoom="10.427458"
     inkscape:cx="190.21452"
     inkscape:cy="39.172892"
     inkscape:window-x="0"
     inkscape:window-y="24"
     inkscape:window-maximized="1"
     inkscape:current-layer="g12" /><g
     id="g10"
     inkscape:groupmode="layer"
     inkscape:label="ink_ext_XXXXXX"
     transform="matrix(1.25,0,0,-1.25,0,262.5)"><g
       id="g12"
       transform="scale(0.1,0.1)"><g
         id="g14"
         transform="scale(10,10)" /><g
         id="g18"><g
           id="g20"
           clip-path="url(#clipPath22)"><g
             id="g26"
             transform="scale(10,10)"><text
               transform="matrix(1,0,0,-0.99649235,378.039,56.6012)"
               id="text28"><tspan
                 style="fill:#000000;fill-opacity:1;fill-rule:nonzero;stroke:none;font-family:Calibri;font-style:italic;font-variant:normal;font-size:11.0788608;writing-mode:lr;-inkscape-font-specification:Calibri Italic"
                 x="0"
                 y="0"
                 id="tspan30">x</tspan></text>
</g></g></g><g
         id="g32"><g
           id="g34"
           clip-path="url(#clipPath36)"><g
             id="g40"
             transform="scale(10,10)" /></g></g><g
         id="g42"><g
           id="g44"
           clip-path="url(#clipPath46)"><g
             id="g50"
             transform="scale(10,10)"><text
               transform="matrix(1,0,0,-0.99649235,44.0789,29.7215)"
               id="text52"><tspan
                 style="fill:#000000;fill-opacity:1;fill-rule:nonzero;stroke:none;font-family:Calibri;font-variant:normal;font-weight:normal;font-size:11.0788608;writing-mode:lr;-inkscape-font-specification:Calibri"
                 x="0 5.75999146 11.03997754 14.87997418 20.39996902 26.15995628"
                 y="0"
                 sodipodi:role="line"
                 id="tspan54">Parent</tspan></text>
</g></g></g><g
         id="g56"><g
           id="g58"
           clip-path="url(#clipPath60)"><g
             id="g64"
             transform="scale(10,10)" /></g></g><g
         id="g66"><g
           id="g68"
           clip-path="url(#clipPath70)"><g
             id="g74"
             transform="scale(10,10)"><text
               transform="matrix(1,0,0,-0.99649235,76.359,29.7215)"
               id="text76"><tspan
                 style="fill:#000000;fill-opacity:1;fill-rule:nonzero;stroke:none;font-family:Calibri;font-variant:normal;font-weight:normal;font-size:11.0788608;writing-mode:lr;-inkscape-font-specification:Calibri"
                 x="0 5.51999484 8.03999463 13.43998205 22.31997028 27.83996512 33.47995169"
                 y="0"
                 sodipodi:role="line"
                 id="tspan78">element</tspan></text>
</g></g></g><g
         id="g80"><g
           id="g82"
           clip-path="url(#clipPath84)"><g
             id="g88"
             transform="scale(10,10)" /></g></g><path
         d="m 867.992,1067.61 712.798,0 0,-7.2 -712.798,0 0,7.2 z m 703.198,26.4 60,-30 -60,-30"
         style="fill:#000000;fill-opacity:1;fill-rule:nonzero;stroke:none"
         id="path90" /><path
         d="m 866.789,1064.01 0,644.4 8.402,0 -1.199,-644.4 -7.203,0 z m -26.398,634.8 30,60 30,-60"
         style="fill:#000000;fill-opacity:1;fill-rule:nonzero;stroke:none"
         id="path92" /><path
         d="m 422.789,602.012 883.203,0 0,926.402 -883.203,0 0,-926.402 z"
         style="fill:none;stroke:#000000;stroke-opacity:1;stroke-width:7.5;stroke-linecap:round;stroke-linejoin:miter;stroke-miterlimit:8;stroke-dasharray:none"
         id="path94" /><path
         d="m 428.789,1571.61 c -20.398,0 -38.398,-19.2 -38.398,-40.8 0,-22.8 18,-40.8 38.398,-40.8 20.402,0 37.203,18 37.203,40.8 0,21.6 -16.801,40.8 -37.203,40.8"
         style="fill:#000000;fill-opacity:1;fill-rule:evenodd;stroke:none"
         id="path96" /><path
         d="m 428.789,1571.61 c -20.398,0 -38.398,-19.2 -38.398,-40.8 0,-22.8 18,-40.8 38.398,-40.8 20.402,0 37.203,18 37.203,40.8 0,21.6 -16.801,40.8 -37.203,40.8 z"
         style="fill:none;stroke:#000000;stroke-opacity:1;stroke-width:7.5;stroke-linecap:round;stroke-linejoin:round;stroke-miterlimit:10;stroke-dasharray:none"
         id="path98" /><path
         d="m 428.789,656.012 c -21.598,0 -38.398,-18 -38.398,-40.797 0,-21.602 16.8,-39.602 38.398,-39.602 20.402,0 37.203,18 37.203,39.602 0,22.797 -16.801,40.797 -37.203,40.797"
         style="fill:#000000;fill-opacity:1;fill-rule:evenodd;stroke:none"
         id="path100" /><path
         d="m 428.789,656.012 c -21.598,0 -38.398,-18 -38.398,-40.797 0,-21.602 16.8,-39.602 38.398,-39.602 20.402,0 37.203,18 37.203,39.602 0,22.797 -16.801,40.797 -37.203,40.797 z"
         style="fill:none;stroke:#000000;stroke-opacity:1;stroke-width:7.5;stroke-linecap:round;stroke-linejoin:round;stroke-miterlimit:10;stroke-dasharray:none"
         id="path102" /><path
         d="m 1301.19,669.211 c -20.4,0 -37.2,-18 -37.2,-40.797 0,-22.801 16.8,-40.801 37.2,-40.801 20.4,0 37.2,18 37.2,40.801 0,22.797 -16.8,40.797 -37.2,40.797"
         style="fill:#000000;fill-opacity:1;fill-rule:evenodd;stroke:none"
         id="path104" /><path
         d="m 1301.19,669.211 c -20.4,0 -37.2,-18 -37.2,-40.797 0,-22.801 16.8,-40.801 37.2,-40.801 20.4,0 37.2,18 37.2,40.801 0,22.797 -16.8,40.797 -37.2,40.797 z"
         style="fill:none;stroke:#000000;stroke-opacity:1;stroke-width:7.5;stroke-linecap:round;stroke-linejoin:round;stroke-miterlimit:10;stroke-dasharray:none"
         id="path106" /><path
         d="m 1299.99,1564.41 c -20.4,0 -37.2,-18 -37.2,-40.8 0,-22.8 16.8,-40.8 37.2,-40.8 21.6,0 38.4,18 38.4,40.8 0,22.8 -16.8,40.8 -38.4,40.8"
         style="fill:#000000;fill-opacity:1;fill-rule:evenodd;stroke:none"
         id="path108" /><path
         d="m 1299.99,1564.41 c -20.4,0 -37.2,-18 -37.2,-40.8 0,-22.8 16.8,-40.8 37.2,-40.8 21.6,0 38.4,18 38.4,40.8 0,22.8 -16.8,40.8 -38.4,40.8 z"
         style="fill:none;stroke:#000000;stroke-opacity:1;stroke-width:7.5;stroke-linecap:round;stroke-linejoin:round;stroke-miterlimit:10;stroke-dasharray:none"
         id="path110" /><g
         id="g112"><g
           id="g114"
           clip-path="url(#clipPath116)"><g
             id="g120"
             transform="scale(10,10)"><text
               transform="matrix(1,0,0,-0.99649235,79.359,155.361)"
               id="text122"><tspan
                 style="fill:#000000;fill-opacity:1;fill-rule:nonzero;stroke:none;font-family:Calibri;font-variant:normal;font-weight:normal;font-size:11.0788608;writing-mode:lr;-inkscape-font-specification:Calibri"
                 x="0"
                 y="0"
                 id="tspan124">1</tspan></text>
</g></g></g><g
         id="g126"><g
           id="g128"
           clip-path="url(#clipPath130)"><g
             id="g134"
             transform="scale(10,10)" /></g></g><g
         id="g136"><g
           id="g138"
           clip-path="url(#clipPath140)"><g
             id="g144"
             transform="scale(10,10)"><text
               transform="matrix(1,0,0,-0.99649235,132.999,96.5613)"
               id="text146"><tspan
                 style="fill:#000000;fill-opacity:1;fill-rule:nonzero;stroke:none;font-family:Calibri;font-variant:normal;font-weight:normal;font-size:11.0788608;writing-mode:lr;-inkscape-font-specification:Calibri"
                 x="0"
                 y="0"
                 id="tspan148">1</tspan></text>
</g></g></g><g
         id="g150"><g
           id="g152"
           clip-path="url(#clipPath154)"><g
             id="g158"
             transform="scale(10,10)" /></g></g><g
         id="g160"><g
           id="g162"
           clip-path="url(#clipPath164)"><g
             id="g168"
             transform="scale(10,10)"><text
               transform="matrix(1,0,0,-0.99649235,28.2391,155.001)"
               id="text170"><tspan
                 style="fill:#000000;fill-opacity:1;fill-rule:nonzero;stroke:none;font-family:Calibri;font-variant:normal;font-weight:normal;font-size:11.0788608;writing-mode:lr;-inkscape-font-specification:Calibri"
                 x="0"
                 y="0"
                 id="tspan172">4</tspan></text>
</g></g></g><g
         id="g174"><g
           id="g176"
           clip-path="url(#clipPath178)"><g
             id="g182"
             transform="scale(10,10)" /></g></g><g
         id="g184"><g
           id="g186"
           clip-path="url(#clipPath188)"><g
             id="g192"
             transform="scale(10,10)"><text
               transform="matrix(1,0,0,-0.99649235,136.119,153.921)"
               id="text194"><tspan
                 style="fill:#000000;fill-opacity:1;fill-rule:nonzero;stroke:none;font-family:Calibri;font-variant:normal;font-weight:normal;font-size:11.0788608;writing-mode:lr;-inkscape-font-specification:Calibri"
                 x="0"
                 y="0"
                 id="tspan196">3</tspan></text>
</g></g></g><g
         id="g198"><g
           id="g200"
           clip-path="url(#clipPath202)"><g
             id="g206"
             transform="scale(10,10)" /></g></g><g
         id="g208"><g
           id="g210"
           clip-path="url(#clipPath212)"><g
             id="g216"
             transform="scale(10,10)"><text
               transform="matrix(1,0,0,-0.99649235,138.519,59.3613)"
               id="text218"><tspan
                 style="fill:#000000;fill-opacity:1;fill-rule:nonzero;stroke:none;font-family:Calibri;font-variant:normal;font-weight:normal;font-size:11.0788608;writing-mode:lr;-inkscape-font-specification:Calibri"
                 x="0"
                 y="0"
                 id="tspan220">2</tspan></text>
</g></g></g><g
         id="g222"><g
           id="g224"
           clip-path="url(#clipPath226)"><g
             id="g230"
             transform="scale(10,10)" /></g></g><g
         id="g232"><g
           id="g234"
           clip-path="url(#clipPath236)"><g
             id="g240"
             transform="scale(10,10)"><text
               transform="matrix(1,0,0,-0.99649235,25.4789,56.6012)"
               id="text242"><tspan
                 style="fill:#000000;fill-opacity:1;fill-rule:nonzero;stroke:none;font-family:Calibri;font-variant:normal;font-weight:normal;font-size:11.0788608;writing-mode:lr;-inkscape-font-specification:Calibri"
                 x="0"
                 y="0"
                 id="tspan244">1</tspan></text>
</g></g></g><g
         id="g246"><g
           id="g248"
           clip-path="url(#clipPath250)"><g
             id="g254"
             transform="scale(10,10)" /></g></g><path
         d="m 2353.59,585.215 1318.8,0 0,-7.203 -1318.8,0 0,7.203 z m 1308,26.398 60,-30 -60,-30"
         style="fill:#000000;fill-opacity:1;fill-rule:nonzero;stroke:none"
         id="path256" /><path
         d="m 2349.99,585.215 0,885.595 7.2,0 0,-885.595 -7.2,0 z m -26.4,875.995 30,60 30,-60"
         style="fill:#000000;fill-opacity:1;fill-rule:nonzero;stroke:none"
         id="path258" /><path
         d="m 3614.79,1564.41 c -20.4,0 -38.4,-18 -38.4,-40.8 0,-22.8 18,-40.8 38.4,-40.8 20.4,0 37.2,18 37.2,40.8 0,22.8 -16.8,40.8 -37.2,40.8"
         style="fill:#000000;fill-opacity:1;fill-rule:evenodd;stroke:none"
         id="path260" /><path
         d="m 3614.79,1564.41 c -20.4,0 -38.4,-18 -38.4,-40.8 0,-22.8 18,-40.8 38.4,-40.8 20.4,0 37.2,18 37.2,40.8 0,22.8 -16.8,40.8 -37.2,40.8 z"
         style="fill:none;stroke:#000000;stroke-opacity:1;stroke-width:7.5;stroke-linecap:round;stroke-linejoin:round;stroke-miterlimit:10;stroke-dasharray:none"
         id="path262" /><path
         d="m 3932.79,1011.21 c -20.4,0 -38.4,-17.999 -38.4,-40.796 0,-21.601 18,-40.801 38.4,-40.801 20.4,0 37.2,19.2 37.2,40.801 0,22.797 -16.8,40.796 -37.2,40.796"
         style="fill:#000000;fill-opacity:1;fill-rule:evenodd;stroke:none"
         id="path264" /><path
         d="m 3932.79,1011.21 c -20.4,0 -38.4,-17.999 -38.4,-40.796 0,-21.601 18,-40.801 38.4,-40.801 20.4,0 37.2,19.2 37.2,40.801 0,22.797 -16.8,40.796 -37.2,40.796 z"
         style="fill:none;stroke:#000000;stroke-opacity:1;stroke-width:7.5;stroke-linecap:round;stroke-linejoin:round;stroke-miterlimit:10;stroke-dasharray:none"
         id="path266" /><path
         d="m 2683.59,1334.01 c -21.6,0 -38.4,-18 -38.4,-40.8 0,-21.6 16.8,-39.6 38.4,-39.6 20.4,0 37.2,18 37.2,39.6 0,22.8 -16.8,40.8 -37.2,40.8"
         style="fill:#000000;fill-opacity:1;fill-rule:evenodd;stroke:none"
         id="path268" /><path
         d="m 2683.59,1334.01 c -21.6,0 -38.4,-18 -38.4,-40.8 0,-21.6 16.8,-39.6 38.4,-39.6 20.4,0 37.2,18 37.2,39.6 0,22.8 -16.8,40.8 -37.2,40.8 z"
         style="fill:none;stroke:#000000;stroke-opacity:1;stroke-width:7.5;stroke-linecap:round;stroke-linejoin:round;stroke-miterlimit:10;stroke-dasharray:none"
         id="path270" /><path
         d="m 2633.19,830.012 c -20.4,0 -37.2,-19.199 -37.2,-40.801 0,-22.797 16.8,-40.797 37.2,-40.797 21.6,0 38.4,18 38.4,40.797 0,21.602 -16.8,40.801 -38.4,40.801"
         style="fill:#000000;fill-opacity:1;fill-rule:evenodd;stroke:none"
         id="path272" /><path
         d="m 2633.19,830.012 c -20.4,0 -37.2,-19.199 -37.2,-40.801 0,-22.797 16.8,-40.797 37.2,-40.797 21.6,0 38.4,18 38.4,40.797 0,21.602 -16.8,40.801 -38.4,40.801 z"
         style="fill:none;stroke:#000000;stroke-opacity:1;stroke-width:7.5;stroke-linecap:round;stroke-linejoin:round;stroke-miterlimit:10;stroke-dasharray:none"
         id="path274" /><path
         d="m 2682.39,1298.01 934.8,220.8"
         style="fill:none;stroke:#000000;stroke-opacity:1;stroke-width:7.5;stroke-linecap:butt;stroke-linejoin:round;stroke-miterlimit:10;stroke-dasharray:none"
         id="path276" /><path
         d="m 3933.99,962.012 -316.8,556.798"
         style="fill:none;stroke:#000000;stroke-opacity:1;stroke-width:7.5;stroke-linecap:butt;stroke-linejoin:round;stroke-miterlimit:10;stroke-dasharray:none"
         id="path278" /><path
         d="m 2625.99,773.613 1308,188.399"
         style="fill:none;stroke:#000000;stroke-opacity:1;stroke-width:7.5;stroke-linecap:butt;stroke-linejoin:round;stroke-miterlimit:10;stroke-dasharray:none"
         id="path280" /><path
         d="m 2625.99,773.613 56.4,524.397"
         style="fill:none;stroke:#000000;stroke-opacity:1;stroke-width:7.5;stroke-linecap:butt;stroke-linejoin:round;stroke-miterlimit:10;stroke-dasharray:none"
         id="path282" /><g
         id="g284"><g
           id="g286"
           clip-path="url(#clipPath288)"><g
             id="g292"
             transform="scale(10,10)"><text
               transform="matrix(1,0,0,-0.99649235,243.759,31.2813)"
               id="text294"><tspan
                 style="fill:#000000;fill-opacity:1;fill-rule:nonzero;stroke:none;font-family:Calibri;font-variant:normal;font-weight:normal;font-size:11.0788608;writing-mode:lr;-inkscape-font-specification:Calibri"
                 x="0 6.35999741 11.03995906 14.75997117 20.51995233 25.79994451 28.31993819 30.8399228 36.35992985 38.87992354 44.27991097 53.0398799 58.55986253 64.31986806"
                 y="0"
                 sodipodi:role="line"
                 id="tspan296">Actual element</tspan></text>
</g></g></g><g
         id="g298"><g
           id="g300"
           clip-path="url(#clipPath302)"><g
             id="g306"
             transform="scale(10,10)" /></g></g><g
         id="g308"><g
           id="g310"
           clip-path="url(#clipPath312)"><g
             id="g316"
             transform="scale(10,10)" /></g></g><g
         id="g318"><g
           id="g320"
           clip-path="url(#clipPath322)"><g
             id="g326"
             transform="scale(10,10)"><text
               transform="matrix(1,0,0,-0.99649235,255.159,65.9613)"
               id="text328"><tspan
                 style="fill:#000000;fill-opacity:1;fill-rule:nonzero;stroke:none;font-family:Calibri;font-variant:normal;font-weight:normal;font-size:11.0788608;writing-mode:lr;-inkscape-font-specification:Calibri"
                 x="0"
                 y="0"
                 id="tspan330">1</tspan></text>
</g></g></g><g
         id="g332"><g
           id="g334"
           clip-path="url(#clipPath336)"><g
             id="g340"
             transform="scale(10,10)" /></g></g><g
         id="g342"><g
           id="g344"
           clip-path="url(#clipPath346)"><g
             id="g350"
             transform="scale(10,10)"><text
               transform="matrix(1,0,0,-0.99649235,254.799,127.641)"
               id="text352"><tspan
                 style="fill:#000000;fill-opacity:1;fill-rule:nonzero;stroke:none;font-family:Calibri;font-variant:normal;font-weight:normal;font-size:11.0788608;writing-mode:lr;-inkscape-font-specification:Calibri"
                 x="0"
                 y="0"
                 id="tspan354">4</tspan></text>
</g></g></g><g
         id="g356"><g
           id="g358"
           clip-path="url(#clipPath360)"><g
             id="g364"
             transform="scale(10,10)" /></g></g><g
         id="g366"><g
           id="g368"
           clip-path="url(#clipPath370)"><g
             id="g374"
             transform="scale(10,10)"><text
               transform="matrix(1,0,0,-0.99649235,387.759,82.1613)"
               id="text376"><tspan
                 style="fill:#000000;fill-opacity:1;fill-rule:nonzero;stroke:none;font-family:Calibri;font-variant:normal;font-weight:normal;font-size:11.0788608;writing-mode:lr;-inkscape-font-specification:Calibri"
                 x="0"
                 y="0"
                 id="tspan378">2</tspan></text>
</g></g></g><g
         id="g380"><g
           id="g382"
           clip-path="url(#clipPath384)"><g
             id="g388"
             transform="scale(10,10)" /></g></g><g
         id="g390"><g
           id="g392"
           clip-path="url(#clipPath394)"><g
             id="g398"
             transform="scale(10,10)"><text
               transform="matrix(1,0,0,-0.99649235,354.159,157.521)"
               id="text400"><tspan
                 style="fill:#000000;fill-opacity:1;fill-rule:nonzero;stroke:none;font-family:Calibri;font-variant:normal;font-weight:normal;font-size:11.0788608;writing-mode:lr;-inkscape-font-specification:Calibri"
                 x="0"
                 y="0"
                 id="tspan402">3</tspan></text>
</g></g></g><g
         id="g404"><g
           id="g406"
           clip-path="url(#clipPath408)"><g
             id="g412"
             transform="scale(10,10)" /></g></g><g
         id="g414"
         transform="scale(10,10)"><text
           transform="matrix(1,0,0,-0.99649235,388.479,143.241)"
           id="text416"><tspan
             style="fill:#000000;fill-opacity:1;fill-rule:nonzero;stroke:none;font-family:Calibri;font-variant:normal;font-weight:normal;font-size:11.0788608;writing-mode:lr;-inkscape-font-specification:Calibri"
             x="0"
             y="0"
             id="tspan418">u</tspan></text>
<text
           transform="matrix(1,0,0,-0.99651221,394.239,142.281)"
           id="text420"><tspan
             style="fill:#000000;fill-opacity:1;fill-rule:nonzero;stroke:none;font-family:Calibri;font-variant:normal;font-weight:normal;font-size:6.98436;writing-mode:lr;-inkscape-font-specification:Calibri"
             x="0 3.48123167"
             y="0"
             sodipodi:role="line"
             id="tspan422">3 </tspan></text>
<text
           transform="matrix(1,0,0,-0.99649235,415.839,85.4012)"
           id="text424"><tspan
             style="fill:#000000;fill-opacity:1;fill-rule:nonzero;stroke:none;font-family:Calibri;font-variant:normal;font-weight:normal;font-size:11.0788608;writing-mode:lr;-inkscape-font-specification:Calibri"
             x="0"
             y="0"
             id="tspan426">u</tspan></text>
<text
           transform="matrix(1,0,0,-0.99651221,421.599,84.4414)"
           id="text428"><tspan
             style="fill:#000000;fill-opacity:1;fill-rule:nonzero;stroke:none;font-family:Calibri;font-variant:normal;font-weight:normal;font-size:6.98436;writing-mode:lr;-inkscape-font-specification:Calibri"
             x="0 3.48081659"
             y="0"
             sodipodi:role="line"
             id="tspan430">2 </tspan></text>
<text
           transform="matrix(1,0,0,-0.99649235,277.599,70.2813)"
           id="text432"><tspan
             style="fill:#000000;fill-opacity:1;fill-rule:nonzero;stroke:none;font-family:Calibri;font-variant:normal;font-weight:normal;font-size:11.0788608;writing-mode:lr;-inkscape-font-specification:Calibri"
             x="0"
             y="0"
             id="tspan434">u</tspan></text>
<text
           transform="matrix(1,0,0,-0.99651221,283.359,69.3211)"
           id="text436"><tspan
             style="fill:#000000;fill-opacity:1;fill-rule:nonzero;stroke:none;font-family:Calibri;font-variant:normal;font-weight:normal;font-size:6.98436;writing-mode:lr;-inkscape-font-specification:Calibri"
             x="0 3.48123167"
             y="0"
             sodipodi:role="line"
             id="tspan438">1 </tspan></text>
</g><g
         id="g440"><g
           id="g442"
           clip-path="url(#clipPath444)"><g
             id="g448"
             transform="scale(10,10)"><text
               transform="matrix(1,0,0,-0.99649235,291.279,118.401)"
               id="text450"><tspan
                 style="fill:#000000;fill-opacity:1;fill-rule:nonzero;stroke:none;font-family:Calibri;font-variant:normal;font-weight:normal;font-size:11.0788608;writing-mode:lr;-inkscape-font-specification:Calibri"
                 x="0"
                 y="0"
                 id="tspan452">u</tspan></text>
</g></g></g><g
         id="g454"
         transform="scale(10,10)"><text
           transform="matrix(1,0,0,-0.99651221,297.039,117.441)"
           id="text456"><tspan
             style="fill:#000000;fill-opacity:1;fill-rule:nonzero;stroke:none;font-family:Calibri;font-variant:normal;font-weight:normal;font-size:6.98436;writing-mode:lr;-inkscape-font-specification:Calibri"
             x="0 3.48123167"
             y="0"
             sodipodi:role="line"
             id="tspan458">4 </tspan></text>
</g><path
         d="m 3617.19,1522.41 231.6,0 0,-7.2 -231.6,0 0,7.2 z m 222,26.4 60,-30 -60,-30"
         style="fill:#000000;fill-opacity:1;fill-rule:nonzero;stroke:none"
         id="path460" /><path
         d="m 3613.59,1523.61 0,198 7.2,0 0,-198 -7.2,0 z m -26.4,188.4 30,60 30,-60"
         style="fill:#000000;fill-opacity:1;fill-rule:nonzero;stroke:none"
         id="path462" /><path
         d="m 3933.99,971.613 232.8,-1.199 0,-7.203 -232.8,0 0,8.402 z m 222,25.2 60,-30 -60,-30"
         style="fill:#000000;fill-opacity:1;fill-rule:nonzero;stroke:none"
         id="path464" /><path
         d="m 3930.39,971.613 1.2,199.197 7.2,0 0,-199.197 -8.4,0 z m -25.2,188.397 30,60 30,-60"
         style="fill:#000000;fill-opacity:1;fill-rule:nonzero;stroke:none"
         id="path466" /><path
         d="m 2682.39,1286.01 231.6,-1.2 0,-7.2 -231.6,1.2 0,7.2 z m 222,25.2 60,-30 -60,-30"
         style="fill:#000000;fill-opacity:1;fill-rule:nonzero;stroke:none"
         id="path468" /><path
         d="m 2678.79,1286.01 0,199.2 7.2,0 0,-199.2 -7.2,0 z m -26.4,189.6 30,60 30,-61.2"
         style="fill:#000000;fill-opacity:1;fill-rule:nonzero;stroke:none"
         id="path470" /><path
         d="m 2625.99,786.813 231.6,0 0,-7.2 -231.6,0 0,7.2 z m 222,26.398 60,-30 -60,-30"
         style="fill:#000000;fill-opacity:1;fill-rule:nonzero;stroke:none"
         id="path472" /><path
         d="m 2622.39,788.012 0,198 7.2,0 0,-198 -7.2,0 z m -26.4,188.402 30,59.996 30,-59.996"
         style="fill:#000000;fill-opacity:1;fill-rule:nonzero;stroke:none"
         id="path474" /><g
         id="g476"><g
           id="g478"
           clip-path="url(#clipPath480)"><g
             id="g484"
             transform="scale(10,10)"><text
               transform="matrix(1,0,0,-0.99649235,250.479,96.8012)"
               id="text486"><tspan
                 style="fill:#000000;fill-opacity:1;fill-rule:nonzero;stroke:none;font-family:Calibri;font-variant:normal;font-weight:normal;font-size:11.0788608;writing-mode:lr;-inkscape-font-specification:Calibri"
                 x="0"
                 y="0"
                 id="tspan488">v</tspan></text>
</g></g></g><g
         id="g490"
         transform="scale(10,10)"><text
           transform="matrix(1,0,0,-0.99651221,255.519,95.8414)"
           id="text492"><tspan
             style="fill:#000000;fill-opacity:1;fill-rule:nonzero;stroke:none;font-family:Calibri;font-variant:normal;font-weight:normal;font-size:6.98436;writing-mode:lr;-inkscape-font-specification:Calibri"
             x="0 3.48123167"
             y="0"
             sodipodi:role="line"
             id="tspan494">1 </tspan></text>
<text
           transform="matrix(1,0,0,-0.99649235,397.959,117.201)"
           id="text496"><tspan
             style="fill:#000000;fill-opacity:1;fill-rule:nonzero;stroke:none;font-family:Calibri;font-variant:normal;font-weight:normal;font-size:11.0788608;writing-mode:lr;-inkscape-font-specification:Calibri"
             x="0"
             y="0"
             id="tspan498">v</tspan></text>
<text
           transform="matrix(1,0,0,-0.99651221,402.999,116.241)"
           id="text500"><tspan
             style="fill:#000000;fill-opacity:1;fill-rule:nonzero;stroke:none;font-family:Calibri;font-variant:normal;font-weight:normal;font-size:6.98436;writing-mode:lr;-inkscape-font-specification:Calibri"
             x="0 3.48123167"
             y="0"
             sodipodi:role="line"
             id="tspan502">2 </tspan></text>
<text
           transform="matrix(1,0,0,-0.99649235,365.679,173.841)"
           id="text504"><tspan
             style="fill:#000000;fill-opacity:1;fill-rule:nonzero;stroke:none;font-family:Calibri;font-variant:normal;font-weight:normal;font-size:11.0788608;writing-mode:lr;-inkscape-font-specification:Calibri"
             x="0"
             y="0"
             id="tspan506">v</tspan></text>
<text
           transform="matrix(1,0,0,-0.99651221,370.719,172.881)"
           id="text508"><tspan
             style="fill:#000000;fill-opacity:1;fill-rule:nonzero;stroke:none;font-family:Calibri;font-variant:normal;font-weight:normal;font-size:6.98436;writing-mode:lr;-inkscape-font-specification:Calibri"
             x="0 3.48084103"
             y="0"
             sodipodi:role="line"
             id="tspan510">3 </tspan></text>
</g><g
         id="g512"><g
           id="g514"
           clip-path="url(#clipPath516)"><g
             id="g520"
             transform="scale(10,10)"><text
               transform="matrix(1,0,0,-0.99649235,270.999,154.641)"
               id="text522"><tspan
                 style="fill:#000000;fill-opacity:1;fill-rule:nonzero;stroke:none;font-family:Calibri;font-variant:normal;font-weight:normal;font-size:11.0788608;writing-mode:lr;-inkscape-font-specification:Calibri"
                 x="0"
                 y="0"
                 id="tspan524">v</tspan></text>
</g></g></g><g
         id="g526"
         transform="scale(10,10)"><text
           transform="matrix(1,0,0,-0.99651221,276.039,153.681)"
           id="text528"><tspan
             style="fill:#000000;fill-opacity:1;fill-rule:nonzero;stroke:none;font-family:Calibri;font-variant:normal;font-weight:normal;font-size:6.98436;writing-mode:lr;-inkscape-font-specification:Calibri"
             x="0 3.48123167"
             y="0"
             sodipodi:role="line"
             id="tspan530">4 </tspan></text>
</g><g
         id="g532"><g
           id="g534"
           clip-path="url(#clipPath536)"><g
             id="g540"
             transform="scale(10,10)"><text
               transform="matrix(1,0,0,-0.99649235,235.479,161.121)"
               id="text542"><tspan
                 style="fill:#000000;fill-opacity:1;fill-rule:nonzero;stroke:none;font-family:Calibri;font-style:italic;font-variant:normal;font-size:11.0788608;writing-mode:lr;-inkscape-font-specification:Calibri Italic"
                 x="0"
                 y="0"
                 id="tspan544">y</tspan></text>
</g></g></g><g
         id="g546"><g
           id="g548"
           clip-path="url(#clipPath550)"><g
             id="g554"
             transform="scale(10,10)" /></g></g><path
         d="m 1223.3028,136.42249 556.1074,0 0,387.598 -556.1074,0 0,-387.598 z"
         style="fill:#92d050;fill-opacity:1;fill-rule:evenodd;stroke:none"
         id="path558"
         inkscape:connector-curvature="0" /><g
         id="g560"
         transform="scale(10,10)"><text
           transform="matrix(1,0,0,-0.99647249,129.759,34.1613)"
           id="text562"><tspan
             style="fill:#000000;fill-opacity:1;fill-rule:nonzero;stroke:none;font-family:Euclid;font-style:italic;font-variant:normal;font-size:6.35806817;writing-mode:lr;-inkscape-font-specification:Euclid Italic"
             x="0"
             y="0"
             id="tspan564">e</tspan></text>
</g><g
         id="g580"
         transform="translate(-26.683193,6.877086)"><g
           id="g582"
           clip-path="url(#clipPath584)"><g
             id="g588"
             transform="scale(10,10)"><text
               transform="matrix(1,0,0,-0.99650228,153.999,21.5613)"
               id="text590"><tspan
                 style="font-size:10.97057247px;font-style:italic;font-variant:normal;writing-mode:lr-tb;fill:#000000;fill-opacity:1;fill-rule:nonzero;stroke:none;font-family:EuclidSymbol;-inkscape-font-specification:EuclidSymbol Italic"
                 x="0"
                 y="0"
                 id="tspan592">η</tspan></text>
</g></g></g><g
         id="g608"><g
           id="g610"
           clip-path="url(#clipPath612)"><g
             id="g616"
             transform="scale(10,10)"><text
               transform="matrix(1,0,0,-0.99650228,148.599,38.7215)"
               id="text618"><tspan
                 style="font-size:10.97057247px;font-variant:normal;font-weight:normal;writing-mode:lr-tb;fill:#000000;fill-opacity:1;fill-rule:nonzero;stroke:none;font-family:EuclidSymbol;-inkscape-font-specification:EuclidSymbol"
                 sodipodi:role="line"
                 id="tspan620"
                 x="0"
                 y="0" /></text>
</g></g></g><g
         id="g650"
         transform="matrix(10,0,0,10,-48.589451,3.3899617)"><text
           transform="matrix(1,0,0,-0.99650228,137.319,29.2414)"
           id="text652"><tspan
             style="font-size:10.97057247px;font-variant:normal;font-weight:normal;writing-mode:lr-tb;fill:#000000;fill-opacity:1;fill-rule:nonzero;stroke:none;font-family:EuclidSymbol;-inkscape-font-specification:EuclidSymbol"
             x="0"
             y="0"
             id="tspan654">=</tspan></text>
</g><g
         id="g726"
         transform="scale(10,10)"><text
           transform="matrix(1,0,0,-0.99650228,124.239,29.2414)"
           id="text728"><tspan
             style="fill:#000000;fill-opacity:1;fill-rule:nonzero;stroke:none;font-family:EuclidSymbol;font-style:italic;font-variant:normal;font-weight:bold;font-size:10.97057202;writing-mode:lr;-inkscape-font-specification:'EuclidSymbol,BoldItalic'"
             x="0"
             y="0"
             id="tspan730">ξ</tspan></text>
</g><g
         id="g732"><g
           id="g734"
           clip-path="url(#clipPath736)"><g
             id="g740"
             transform="scale(10,10)"><text
               transform="matrix(1,0,0,-0.99645263,168.519,103.521)"
               id="text742"><tspan
                 style="fill:#000000;fill-opacity:1;fill-rule:nonzero;stroke:none;font-family:EuclidSymbol;font-style:italic;font-variant:normal;font-size:10.9504453;writing-mode:lr;-inkscape-font-specification:EuclidSymbol Italic"
                 x="0"
                 y="0"
                 id="tspan744">ξ</tspan></text>
</g></g></g><g
         id="g746"><g
           id="g748"
           clip-path="url(#clipPath750)"><g
             id="g754"
             transform="scale(10,10)"><text
               transform="matrix(1,0,0,-0.99648242,83.1992,182.961)"
               id="text756"><tspan
                 style="fill:#000000;fill-opacity:1;fill-rule:nonzero;stroke:none;font-family:EuclidSymbol;font-style:italic;font-variant:normal;font-size:10.9284417;writing-mode:lr;-inkscape-font-specification:EuclidSymbol Italic"
                 x="0"
                 y="0"
                 id="tspan758">η</tspan></text>
</g></g></g><text
         xml:space="preserve"
         style="font-size:320px;font-style:normal;font-weight:normal;line-height:125%;letter-spacing:0px;word-spacing:0px;fill:#000000;fill-opacity:1;stroke:none;font-family:Sans"
         x="1393.5658"
         y="-235.74815"
         id="text3735"
         sodipodi:linespacing="125%"
         transform="scale(1,-1)"><tspan
           sodipodi:role="line"
           id="tspan3737"
           x="1393.5658"
           y="-235.74815">{}</tspan></text>
<g
         id="g566"
         transform="translate(-23.614372,1.5066496)"><g
           id="g568"
           clip-path="url(#clipPath570)"><g
             id="g574"
             transform="scale(10,10)"><text
               transform="matrix(1,0,0,-0.99650228,153.999,37.8813)"
               id="text576"><tspan
                 style="font-size:10.97057247px;font-style:italic;font-variant:normal;writing-mode:lr-tb;fill:#000000;fill-opacity:1;fill-rule:nonzero;stroke:none;font-family:EuclidSymbol;-inkscape-font-specification:EuclidSymbol Italic"
                 x="0"
                 y="0"
                 id="tspan578">ξ</tspan></text>
</g></g></g></g></g></svg>